<svg width="248" height="269" viewBox="0 0 248 269" fill="none" xmlns="http://www.w3.org/2000/svg">
<g filter="url(#filter0_d_10_83)">
<circle cx="127" cy="145" r="114" fill="#17A81D" fill-opacity="0.13" shape-rendering="crispEdges"/>
<circle cx="127" cy="145" r="113.75" stroke="black" stroke-width="0.5" shape-rendering="crispEdges"/>
</g>
<path d="M139.901 105.636V123.392H66.392V105.636H139.901ZM88.4091 242V86.8153C88.4091 79.0028 90.2438 72.4924 93.9134 67.2841C97.5829 62.0757 102.347 58.1695 108.207 55.5653C114.066 52.9612 120.251 51.6591 126.761 51.6591C131.911 51.6591 136.113 52.0734 139.368 52.902C142.623 53.7306 145.05 54.5 146.648 55.2102L140.611 73.321C139.545 72.9659 138.066 72.522 136.172 71.9893C134.337 71.4567 131.911 71.1903 128.892 71.1903C121.967 71.1903 116.966 72.9363 113.888 76.4283C110.87 79.9202 109.361 85.0398 109.361 91.7869V242H88.4091Z" fill="#129217"/>
<path d="M139.901 105.636H140.901L139.901 104.636V105.636ZM139.901 123.392V124.392L140.901 123.392H139.901ZM66.392 123.392H65.392L66.392 124.392V123.392ZM66.392 105.636V104.636L65.392 105.636H66.392ZM88.4091 242H87.4091L88.4091 243V242ZM93.9134 67.2841L93.0959 66.7081L93.9134 67.2841ZM108.207 55.5653L107.801 54.6515L108.207 55.5653ZM139.368 52.902L139.121 53.8711H139.121L139.368 52.902ZM146.648 55.2102L147.596 55.5264L147.054 54.2964L146.648 55.2102ZM140.611 73.321L140.295 74.2697L141.559 73.6372L140.611 73.321ZM136.172 71.9893L135.893 72.9497L135.901 72.952L136.172 71.9893ZM113.888 76.4283L113.138 75.767L113.132 75.7743L113.888 76.4283ZM109.361 242V243L110.361 242H109.361ZM138.901 105.636V123.392H140.901V105.636H138.901ZM139.901 122.392H66.392V124.392H139.901V122.392ZM67.392 123.392V105.636H65.392V123.392H67.392ZM66.392 106.636H139.901V104.636H66.392V106.636ZM89.4091 242V86.8153H87.4091V242H89.4091ZM89.4091 86.8153C89.4091 79.1617 91.2047 72.8649 94.7308 67.86L93.0959 66.7081C89.283 72.12 87.4091 78.8439 87.4091 86.8153H89.4091ZM94.7308 67.86C98.2956 62.8004 102.917 59.0104 108.613 56.4791L107.801 54.6515C101.777 57.3286 96.8702 61.3511 93.0959 66.7081L94.7308 67.86ZM108.613 56.4791C114.342 53.9327 120.389 52.6591 126.761 52.6591V50.6591C120.113 50.6591 113.79 51.9896 107.801 54.6515L108.613 56.4791ZM126.761 52.6591C131.866 52.6591 135.977 53.0708 139.121 53.8711L139.615 51.9329C136.248 51.0759 131.955 50.6591 126.761 50.6591V52.6591ZM139.121 53.8711C142.362 54.696 144.723 55.4489 146.242 56.124L147.054 54.2964C145.377 53.5511 142.884 52.7652 139.615 51.9329L139.121 53.8711ZM145.699 54.894L139.662 73.0048L141.559 73.6372L147.596 55.5264L145.699 54.894ZM140.927 72.3723C139.84 72.0098 138.342 71.561 136.443 71.0267L135.901 72.952C137.789 73.483 139.251 73.922 140.295 74.2697L140.927 72.3723ZM136.451 71.029C134.489 70.4594 131.957 70.1903 128.892 70.1903V72.1903C131.864 72.1903 134.186 72.454 135.893 72.9497L136.451 71.029ZM128.892 70.1903C121.822 70.1903 116.483 71.9724 113.138 75.7671L114.639 77.0895C117.45 73.9002 122.113 72.1903 128.892 72.1903V70.1903ZM113.132 75.7743C109.898 79.5159 108.361 84.908 108.361 91.7869H110.361C110.361 85.1715 111.842 80.3245 114.645 77.0822L113.132 75.7743ZM108.361 91.7869V242H110.361V91.7869H108.361ZM109.361 241H88.4091V243H109.361V241Z" fill="black"/>
<path d="M115.273 221V127.909H126.545V211H169.818V221H115.273Z" fill="black"/>
<defs>
<filter id="filter0_d_10_83" x="0" y="21" width="248" height="248" filterUnits="userSpaceOnUse" color-interpolation-filters="sRGB">
<feFlood flood-opacity="0" result="BackgroundImageFix"/>
<feColorMatrix in="SourceAlpha" type="matrix" values="0 0 0 0 0 0 0 0 0 0 0 0 0 0 0 0 0 0 127 0" result="hardAlpha"/>
<feMorphology radius="10" operator="dilate" in="SourceAlpha" result="effect1_dropShadow_10_83"/>
<feOffset dx="-3"/>
<feComposite in2="hardAlpha" operator="out"/>
<feColorMatrix type="matrix" values="0 0 0 0 0.0905209 0 0 0 0 0.658333 0 0 0 0 0.113233 0 0 0 0.5 0"/>
<feBlend mode="normal" in2="BackgroundImageFix" result="effect1_dropShadow_10_83"/>
<feBlend mode="normal" in="SourceGraphic" in2="effect1_dropShadow_10_83" result="shape"/>
</filter>
</defs>
</svg>
